PathFileType	4	(X/Y/Z)	walk-thru1-4-TP.trc
DataRate	CameraRate	NumFrames	NumMarkers	Units	OrigDataRate	OrigDataStartFrame	OrigNumFrames
120.00	120.00	       4	60	mm	120.00	311	       497
Frame#	Time	Top.Head			Front.Head			Rear.Head			Jaw			C7			R.Clavicle			L.Clavicle			R.Shoulder			L.Shoulder			R.Scapula			L.Scapula			R.Scap.Inf			R.Biceps.Lateral			R.Elbow			R.Elbow.Medial			R.Forearm			R.Ulna			R.Radius			R.Wrist			R.Thumb.M1			R.Thumb.M2			R.Thumb.M3			R.Finger3.M1			R.Finger3.M2			R.Finger3.M3			L.Biceps.Lateral			L.Elbow			L.Elbow.Medial			L.Forearm			L.Ulna			L.Radius			L.Wrist			L.Thumb.M1			L.Thumb.M2			L.Thumb.M3			L.Finger3.M1			L.Finger3.M2			L.Finger3.M3			V.Sacral			R.ASIS			L.ASIS			R.Thigh			R.Thigh.Front			R.Knee			R.Knee.Medial			R.Shank			R.Ankle			R.Ankle.Medial			R.Heel			R.Toe			R.MedFoot			L.Thigh			L.Knee			L.Knee.Medial			L.Shank			L.Ankle			L.Ankle.Medial			L.Heel			L.Toe			L.MedFoot			V_mid_ASIS			V_R_Knee_JC			V_L_Knee_JC			V_R_Elbow_JC			V_L_Elbow_JC			V_R_Ankle_JC			V_L_Ankle_JC			V_R_Wrist_JC			V_L_Wrist_JC			V_R_ScaTrpz_1stMC_JC			V_R_1stMC_1stPP_JC			V_R_1stPP_1stDP_JC			V_R_LunCap_3rdMC_JC			V_R_3rdMC_3rdPP_JC			V_R_3rdPP_3rdMP_JC			V_R_3rdMP_3rdDP_JC			V_L_ScaTrpz_1stMC_JC			V_L_1stMC_1stPP_JC			V_L_1stPP_1stDP_JC			V_L_LunCap_3rdMC_JC			V_L_3rdMC_3rdPP_JC			V_L_3rdPP_3rdMP_JC			V_L_3rdMP_3rdPP_JC			V_ROOT_JC			V_R_Hip_JC			V_L_Hip_JC			V_R_GlenHum_JC			V_L_GlenHum_JC			V_ForeHead_Ctr			V_Vertex			V_Sagit_Lambdoid_Suture			V_R_FrontoTemp			V_L_FrontoTemporal			V_R_ParietalOccip			V_L_ParietalOcciptal			V_R_Temporal			V_L_Temporal			V_mid_FrontRearHead			V_mid_RLGlenHumCtrs			V_C7_vert			V_C1_vert			V_Mid_Hip			
		X1	Y1	Z1	X2	Y2	Z2	X3	Y3	Z3	X4	Y4	Z4	X5	Y5	Z5	X6	Y6	Z6	X7	Y7	Z7	X8	Y8	Z8	X9	Y9	Z9	X10	Y10	Z10	X11	Y11	Z11	X12	Y12	Z12	X13	Y13	Z13	X14	Y14	Z14	X15	Y15	Z15	X16	Y16	Z16	X17	Y17	Z17	X18	Y18	Z18	X19	Y19	Z19	X20	Y20	Z20	X21	Y21	Z21	X22	Y22	Z22	X23	Y23	Z23	X24	Y24	Z24	X25	Y25	Z25	X26	Y26	Z26	X27	Y27	Z27	X28	Y28	Z28	X29	Y29	Z29	X30	Y30	Z30	X31	Y31	Z31	X32	Y32	Z32	X33	Y33	Z33	X34	Y34	Z34	X35	Y35	Z35	X36	Y36	Z36	X37	Y37	Z37	X38	Y38	Z38	X39	Y39	Z39	X40	Y40	Z40	X41	Y41	Z41	X42	Y42	Z42	X43	Y43	Z43	X44	Y44	Z44	X45	Y45	Z45	X46	Y46	Z46	X47	Y47	Z47	X48	Y48	Z48	X49	Y49	Z49	X50	Y50	Z50	X51	Y51	Z51	X52	Y52	Z52	X53	Y53	Z53	X54	Y54	Z54	X55	Y55	Z55	X56	Y56	Z56	X57	Y57	Z57	X58	Y58	Z58	X59	Y59	Z59	X60	Y60	Z60	

311	2.583	938.69543	51.82563	1555.05847	1036.19995	45.31769	1454.13892	825.16559	48.88313	1475.77368	1006.01935	30.33102	1313.62781	805.59918	29.78425	1364.34595	885.83362	-82.01116	1275.11719	908.58038	130.90019	1283.62598	835.10095	-157.83266	1271.77661	861.94849	225.58665	1283.74731	755.05634	-54.82841	1287.67578	763.07599	127.58579	1288.46912	711.07379	-36.75665	1206.19592	867.63141	-214.83514	1135.78052	865.13220	-244.06055	973.97424	843.15326	-174.27002	949.00482	959.67712	-238.44031	920.25171	953.94226	-265.28143	831.16711	1027.23022	-223.51424	802.69189	1033.62305	-264.37289	771.65137	1068.29919	-228.28734	763.30823	1091.12256	-214.75940	734.28442	1112.58276	-205.24815	698.73950	1072.37195	-283.54706	707.26434	1090.73755	-268.26944	660.09363	1093.28442	-254.26527	621.65558	845.68011	287.52200	1138.64856	798.60413	302.75336	996.03058	776.65961	224.37048	986.33514	885.85864	283.60950	935.87506	883.42249	320.78662	844.63348	936.74652	262.74905	807.21594	948.18646	310.78201	782.01691	968.61102	267.59845	774.06158	983.55737	245.24850	740.83057	996.01154	236.24387	690.25537	982.31049	309.23184	700.99121	990.70825	303.28366	662.79407	987.87067	284.61755	619.97443	704.51660	40.61762	896.95575	890.71753	-122.01913	966.43628	892.44574	194.24219	946.08594	880.20044	-146.87071	573.35516	937.45294	-71.86165	481.76370	883.30957	-104.68553	435.25525	890.47552	7.66971	431.71640	855.69061	-48.05186	263.60806	746.15002	-54.91962	65.32527	764.82477	36.13215	83.26696	688.03693	2.43097	43.20327	888.22595	-36.96727	37.35527	833.96582	7.38590	64.06935	974.10815	217.32097	581.47699	1041.10596	187.31392	457.04718	1055.89355	62.43678	448.91647	1060.13330	125.29752	266.38043	1010.04260	144.69838	69.13708	1021.68225	56.39567	91.53789	953.92633	95.14803	39.62286	1149.37598	104.68111	55.86248	1100.59448	75.52988	74.96094																																																																																																																															
312	2.592	942.59552	52.93050	1554.56055	1041.25354	46.69650	1453.43872	830.06018	49.70698	1474.50488	1010.31525	31.19843	1313.87805	811.07318	30.98909	1364.32825	890.75134	-81.24072	1275.27783	913.61780	131.29634	1283.36267	839.60443	-156.52173	1271.43628	866.45300	226.71086	1283.16833	760.69080	-52.87975	1287.72705	767.79749	128.54482	1287.27380	714.94043	-35.98248	1205.54883	872.00208	-214.15845	1135.32300	869.82275	-242.78729	973.72015	846.99396	-173.46484	949.12537	965.21680	-237.55667	920.13464	958.16528	-264.68314	830.77478	1031.82166	-222.76688	802.10120	1038.72510	-262.62726	771.06128	1073.03662	-227.30095	762.64240	1095.37695	-213.22023	733.83075	1117.22949	-204.26392	698.22937	1077.78870	-281.85239	706.76404	1096.08240	-268.08359	660.04736	1098.14355	-253.06961	621.10535	851.59509	288.05112	1138.29370	803.96161	303.60019	995.58765	783.71362	225.98883	985.29047	891.72205	284.02243	934.79071	889.03180	321.51767	843.94806	941.86340	263.66605	806.65192	953.04504	311.44196	780.37653	974.76617	267.91031	773.20361	989.64398	244.69357	739.42969	1000.25647	236.22993	689.30164	987.45038	308.13602	698.95892	994.97253	300.89053	660.60260	992.20685	280.84360	619.21967	709.55078	41.06282	896.07623	896.00024	-121.52637	965.82288	898.41522	194.26505	945.11255	883.65704	-146.76556	573.38147	940.03638	-71.47453	481.07736	885.79413	-105.28443	434.39771	892.42847	7.40217	431.34103	856.89233	-48.29041	262.96686	746.15002	-54.91962	65.32527	765.20288	35.89663	83.26231	687.91486	2.63280	43.50677	888.08429	-36.79892	37.49561	833.96582	7.38590	64.06935	978.68042	217.18475	580.35437	1046.50488	186.47287	455.60626	1061.11938	61.31505	448.68848	1068.74316	125.53949	265.99988	1021.44824	145.30255	68.23132	1034.41797	56.56294	90.75298	966.97174	95.32298	39.47428	1161.65747	106.26241	55.45956	1113.04871	75.55042	73.75786																																																																																																																															
313	2.600	947.14905	52.78187	1554.45483	1046.62708	47.66088	1452.57153	833.59100	49.19640	1473.65710	1015.11389	31.06652	1312.97229	815.53931	31.43066	1363.32935	896.11700	-80.63201	1274.63403	918.36005	132.52582	1282.09094	844.37823	-155.82748	1271.02905	871.14319	227.63493	1283.02356	765.26581	-52.37078	1286.57629	772.71692	130.62079	1286.55066	720.60040	-35.30371	1204.33459	876.90253	-213.14485	1134.61108	875.35748	-242.12270	972.38159	851.17963	-172.06999	948.71936	969.79333	-236.22964	918.90735	962.89276	-264.10727	830.23053	1036.86255	-221.37202	801.51031	1043.51880	-261.68054	770.41742	1078.05933	-227.22032	761.54529	1099.91211	-212.29309	732.78064	1121.75916	-203.65291	697.37665	1082.51099	-281.49408	706.54083	1100.24536	-266.93652	658.97266	1103.60327	-252.26204	620.90710	856.34991	288.77859	1137.06897	809.75989	305.17981	994.53912	787.56042	226.21404	985.17688	897.63995	285.10077	934.05731	894.03290	321.48587	843.37488	946.37207	263.57983	805.86560	957.70856	311.48010	779.82196	978.46497	268.00427	772.32196	995.00537	244.22462	738.30170	1005.06030	236.56827	687.39636	992.28809	307.89722	697.92383	999.40033	300.48676	659.13947	996.49811	280.10382	618.87915	715.44495	42.26328	895.92322	901.62128	-120.28421	965.08905	903.44958	195.56470	944.21027	887.41339	-146.15988	573.15533	943.63959	-70.68747	479.87308	889.00537	-104.98316	433.45474	895.85815	7.47125	430.53003	858.40186	-48.40902	261.98071	746.03015	-54.85498	65.52153	765.30182	35.76890	83.11679	687.53601	2.22088	43.65441	888.50592	-36.87058	37.61849	833.42456	7.95710	63.26309	983.85913	216.92763	578.89581	1051.74451	185.59756	454.68497	1066.17102	61.14532	448.37073	1077.48022	124.74282	266.12051	1033.55676	146.07565	67.57288	1044.96448	55.74378	89.57607	978.29718	96.13015	39.08909	1173.47119	106.62609	54.95660	1124.77368	75.79344	72.86388																																																																																																																															
314	2.608	951.81146	53.87419	1553.64465	1051.33655	47.83264	1451.98547	838.52740	50.90985	1472.92383	1020.03339	31.60679	1311.60889	820.86096	33.52325	1362.90417	901.01416	-79.70456	1273.55408	923.56213	132.96143	1280.86609	849.23969	-154.68077	1270.87427	877.32080	228.17000	1281.56006	770.82172	-51.06691	1285.50415	777.83795	131.30565	1286.01172	725.75507	-33.76721	1203.30579	882.29181	-212.39719	1134.26074	879.85376	-241.04788	971.80511	856.30914	-171.82524	947.34967	973.76355	-235.42624	918.51355	968.08069	-263.13525	830.23730	1041.66614	-220.61398	801.11395	1048.56641	-262.06607	769.76129	1082.47119	-225.77867	760.32452	1104.50110	-211.23087	731.81073	1125.98438	-202.14604	696.13300	1087.38757	-280.59167	705.86877	1104.75635	-266.53876	658.12421	1107.85999	-252.07800	620.08075	861.40137	290.30997	1137.10217	814.94055	305.76990	993.00385	794.23358	226.62898	984.41846	903.52100	286.03732	933.68750	900.19025	321.91202	842.19043	951.83569	264.26807	804.42535	963.30072	311.64685	778.80499	984.73889	268.54492	771.41632	1000.22705	244.55022	737.45062	1008.30835	236.45883	686.20319	997.89313	307.37460	696.24811	1003.90973	298.82080	657.80939	1001.48016	279.41602	617.21216	721.26086	43.43136	895.31305	907.33728	-119.78772	963.78674	909.88098	196.58278	942.61401	891.48889	-145.32043	572.44800	946.87280	-70.11227	479.25012	891.80280	-104.20821	432.70105	898.33191	7.81881	429.49429	859.67523	-48.29265	261.52264	745.59698	-55.27258	66.00723	765.94073	35.02460	82.89661	687.34076	2.15199	43.76105	888.23071	-37.22620	37.34344	834.14001	6.68269	64.07452	989.08624	216.72874	577.93457	1057.40491	184.68066	454.50787	1071.38220	60.61111	447.81073	1085.13220	125.04121	265.61520	1043.77881	145.72766	66.63805	1054.57959	56.28525	88.37537	988.50800	96.53020	39.31590	1185.13586	106.91186	54.62957	1134.30237	75.90131	71.04323																																																																																																																															
